<svg xmlns="http://www.w3.org/2000/svg" viewBox="0 0 720 200" width="1440" height="400"><style>@import url('https://fonts.googleapis.com/css2?family=Outfit:wght@600&amp;display=swap');</style><defs><linearGradient id="p" gradientUnits="userSpaceOnUse" x1="390" y1="0" x2="782" y2="0"><stop offset="0" stop-color="#c77dff"/><stop offset=".55" stop-color="#9a3cf7"/><stop offset="1" stop-color="#7000ee"/></linearGradient><linearGradient id="t" x1="0" y1="0" x2="1" y2="1"><stop offset="0" stop-color="#4fb3e8"/><stop offset="1" stop-color="#00d4c4"/></linearGradient></defs>
<g transform="translate(14,27) scale(.55) translate(-390,-360)"><g fill="url(#p)"><path d="M482 362 C535 362 572 400 570 440 C569 462 560 478 565 500 C568 520 568 536 580 548 C600 566 630 566 650 545 C668 526 676 498 684 480 C692 462 712 458 730 460 C762 462 782 485 780 508 C778 528 760 548 742 558 C722 566 702 556 682 572 C660 590 648 606 630 613 C612 622 602 626 596 618 C588 604 580 585 570 572 C556 552 536 536 516 530 C500 526 480 530 462 526 C420 516 394 480 392 440 C392 400 428 362 482 362 Z"/><circle cx="617" cy="493" r="34" fill="url(#t)"/><circle cx="525" cy="584" r="27" fill="url(#t)"/><circle cx="694" cy="592" r="19" fill="url(#t)"/></g></g>
<text x="250" y="126"  font-family="Outfit, Poppins, Segoe UI, sans-serif" font-size="84" font-weight="600" letter-spacing="-1" fill="#ffffff">Agentosys</text>
</svg>
